<svg xmlns="http://www.w3.org/2000/svg" version="1.1" xmlns:xlink="http://www.w3.org/1999/xlink" width="1000" height="1000"><style>
    #light-icon {
      display: inline;
    }
    #dark-icon {
      display: none;
    }

    @media (prefers-color-scheme: dark) {
      #light-icon {
        display: none;
      }
      #dark-icon {
        display: inline;
      }
    }
  </style><g id="light-icon"><svg xmlns="http://www.w3.org/2000/svg" version="1.1" xmlns:xlink="http://www.w3.org/1999/xlink" width="1000" height="1000"><g><g transform="matrix(2,0,0,2,0,0)"><svg xmlns="http://www.w3.org/2000/svg" version="1.1" xmlns:xlink="http://www.w3.org/1999/xlink" width="500" height="500"><svg xmlns="http://www.w3.org/2000/svg" xmlns:xlink="http://www.w3.org/1999/xlink" width="500" zoomAndPan="magnify" viewBox="0 0 375 374.999991" height="500" preserveAspectRatio="xMidYMid meet" version="1.0"><defs><clipPath id="1b91f0ac01"><path d="M 0.078125 0.480469 L 294.800781 0.480469 L 294.800781 374.640625 L 0.078125 374.640625 Z M 0.078125 0.480469 " clip-rule="nonzero"></path></clipPath><clipPath id="eac6c25df0"><path d="M 205 284 L 271 284 L 271 351 L 205 351 Z M 205 284 " clip-rule="nonzero"></path></clipPath><clipPath id="152a85cace"><path d="M 253.574219 283.609375 L 295.207031 325.242188 L 245.8125 374.636719 L 204.175781 333.003906 Z M 253.574219 283.609375 " clip-rule="nonzero"></path></clipPath><clipPath id="5e9517ce16"><path d="M 253.574219 283.609375 L 295.207031 325.242188 L 245.8125 374.636719 L 204.175781 333.003906 Z M 253.574219 283.609375 " clip-rule="nonzero"></path></clipPath><clipPath id="8a0eb39f4f"><path d="M 0.078125 0.480469 L 294.800781 0.480469 L 294.800781 374.640625 L 0.078125 374.640625 Z M 0.078125 0.480469 " clip-rule="nonzero"></path></clipPath><clipPath id="60579a2ab3"><path d="M 24 24 L 90 24 L 90 91 L 24 91 Z M 24 24 " clip-rule="nonzero"></path></clipPath><clipPath id="b900c5d12b"><path d="M 41.425781 91.378906 L -0.207031 49.746094 L 49.1875 0.351562 L 90.824219 41.984375 Z M 41.425781 91.378906 " clip-rule="nonzero"></path></clipPath><clipPath id="b2ad9fa1f1"><path d="M 41.425781 91.378906 L -0.207031 49.746094 L 49.1875 0.351562 L 90.824219 41.984375 Z M 41.425781 91.378906 " clip-rule="nonzero"></path></clipPath><clipPath id="860ec2b641"><rect x="0" width="295" y="0" height="375"></rect></clipPath></defs><g transform="matrix(1, 0, 0, 1, 40, 0)"><g clip-path="url(#860ec2b641)"><path stroke-linecap="round" transform="matrix(0, 0.997933, -0.997933, 0, 65.893537, 110.098001)" fill="none" stroke-linejoin="miter" d="M 14.999417 14.998765 L 215.237626 14.998765 " stroke="#1a2e44" stroke-width="30" stroke-opacity="1" stroke-miterlimit="4"></path><g clip-path="url(#1b91f0ac01)"><path stroke-linecap="round" transform="matrix(0.681212, 0.72926, -0.72926, 0.681212, 58.431272, 102.029079)" fill="none" stroke-linejoin="miter" d="M 15.001248 15.000643 L 297.112592 14.997776 " stroke="#1a2e44" stroke-width="30" stroke-opacity="1" stroke-miterlimit="4"></path></g><g clip-path="url(#eac6c25df0)"><g clip-path="url(#152a85cace)"><g clip-path="url(#5e9517ce16)"><path fill="#1a2e44" d="M 206.152344 331.707031 L 237.3125 316.96875 C 237.660156 316.804688 237.9375 316.523438 238.101562 316.179688 L 252.050781 285.914062 C 252.679688 284.554688 254.640625 284.679688 254.992188 286.105469 L 270.71875 348.441406 C 271.015625 349.605469 269.933594 350.6875 268.769531 350.386719 L 206.359375 334.660156 C 204.960938 334.308594 204.820312 332.359375 206.152344 331.707031 " fill-opacity="1" fill-rule="nonzero"></path></g></g></g><path stroke-linecap="round" transform="matrix(0, -0.997933, 0.997933, 0, 229.104381, 264.901975)" fill="none" stroke-linejoin="miter" d="M 14.999392 15.000852 L 215.237601 15.000852 " stroke="#1a2e44" stroke-width="30" stroke-opacity="1" stroke-miterlimit="4"></path><g clip-path="url(#8a0eb39f4f)"><path stroke-linecap="round" transform="matrix(-0.681212, -0.72926, 0.72926, -0.681212, 236.564978, 272.97092)" fill="none" stroke-linejoin="miter" d="M 15.001355 15.000528 L 297.112698 14.997662 " stroke="#1a2e44" stroke-width="30" stroke-opacity="1" stroke-miterlimit="4"></path></g><g clip-path="url(#60579a2ab3)"><g clip-path="url(#b900c5d12b)"><g clip-path="url(#b2ad9fa1f1)"><path fill="#1a2e44" d="M 88.847656 43.28125 L 57.6875 58.019531 C 57.339844 58.183594 57.0625 58.460938 56.898438 58.808594 L 42.949219 89.074219 C 42.320312 90.433594 40.359375 90.304688 40.007812 88.882812 L 24.28125 26.546875 C 23.984375 25.382812 25.066406 24.300781 26.230469 24.597656 L 88.640625 40.328125 C 90.039062 40.679688 90.179688 42.628906 88.847656 43.28125 " fill-opacity="1" fill-rule="nonzero"></path></g></g></g></g></g></svg></svg></g></g></svg></g><g id="dark-icon"><svg xmlns="http://www.w3.org/2000/svg" version="1.1" xmlns:xlink="http://www.w3.org/1999/xlink" width="1000" height="1000"><g clip-path="url(#SvgjsClipPath1172)"><rect width="1000" height="1000" fill="#ffffff"></rect><g transform="matrix(1.8,0,0,1.8,50,50)"><svg xmlns="http://www.w3.org/2000/svg" version="1.1" xmlns:xlink="http://www.w3.org/1999/xlink" width="500" height="500"><svg xmlns="http://www.w3.org/2000/svg" xmlns:xlink="http://www.w3.org/1999/xlink" width="500" zoomAndPan="magnify" viewBox="0 0 375 374.999991" height="500" preserveAspectRatio="xMidYMid meet" version="1.0"><defs><clipPath id="1b91f0ac01"><path d="M 0.078125 0.480469 L 294.800781 0.480469 L 294.800781 374.640625 L 0.078125 374.640625 Z M 0.078125 0.480469 " clip-rule="nonzero"></path></clipPath><clipPath id="eac6c25df0"><path d="M 205 284 L 271 284 L 271 351 L 205 351 Z M 205 284 " clip-rule="nonzero"></path></clipPath><clipPath id="152a85cace"><path d="M 253.574219 283.609375 L 295.207031 325.242188 L 245.8125 374.636719 L 204.175781 333.003906 Z M 253.574219 283.609375 " clip-rule="nonzero"></path></clipPath><clipPath id="5e9517ce16"><path d="M 253.574219 283.609375 L 295.207031 325.242188 L 245.8125 374.636719 L 204.175781 333.003906 Z M 253.574219 283.609375 " clip-rule="nonzero"></path></clipPath><clipPath id="8a0eb39f4f"><path d="M 0.078125 0.480469 L 294.800781 0.480469 L 294.800781 374.640625 L 0.078125 374.640625 Z M 0.078125 0.480469 " clip-rule="nonzero"></path></clipPath><clipPath id="60579a2ab3"><path d="M 24 24 L 90 24 L 90 91 L 24 91 Z M 24 24 " clip-rule="nonzero"></path></clipPath><clipPath id="b900c5d12b"><path d="M 41.425781 91.378906 L -0.207031 49.746094 L 49.1875 0.351562 L 90.824219 41.984375 Z M 41.425781 91.378906 " clip-rule="nonzero"></path></clipPath><clipPath id="b2ad9fa1f1"><path d="M 41.425781 91.378906 L -0.207031 49.746094 L 49.1875 0.351562 L 90.824219 41.984375 Z M 41.425781 91.378906 " clip-rule="nonzero"></path></clipPath><clipPath id="860ec2b641"><rect x="0" width="295" y="0" height="375"></rect></clipPath><clipPath id="SvgjsClipPath1172"><rect width="1000" height="1000" x="0" y="0" rx="200" ry="200"></rect></clipPath></defs><g transform="matrix(1, 0, 0, 1, 40, 0)"><g clip-path="url(#860ec2b641)"><path stroke-linecap="round" transform="matrix(0, 0.997933, -0.997933, 0, 65.893537, 110.098001)" fill="none" stroke-linejoin="miter" d="M 14.999417 14.998765 L 215.237626 14.998765 " stroke="#1a2e44" stroke-width="30" stroke-opacity="1" stroke-miterlimit="4"></path><g clip-path="url(#1b91f0ac01)"><path stroke-linecap="round" transform="matrix(0.681212, 0.72926, -0.72926, 0.681212, 58.431272, 102.029079)" fill="none" stroke-linejoin="miter" d="M 15.001248 15.000643 L 297.112592 14.997776 " stroke="#1a2e44" stroke-width="30" stroke-opacity="1" stroke-miterlimit="4"></path></g><g clip-path="url(#eac6c25df0)"><g clip-path="url(#152a85cace)"><g clip-path="url(#5e9517ce16)"><path fill="#1a2e44" d="M 206.152344 331.707031 L 237.3125 316.96875 C 237.660156 316.804688 237.9375 316.523438 238.101562 316.179688 L 252.050781 285.914062 C 252.679688 284.554688 254.640625 284.679688 254.992188 286.105469 L 270.71875 348.441406 C 271.015625 349.605469 269.933594 350.6875 268.769531 350.386719 L 206.359375 334.660156 C 204.960938 334.308594 204.820312 332.359375 206.152344 331.707031 " fill-opacity="1" fill-rule="nonzero"></path></g></g></g><path stroke-linecap="round" transform="matrix(0, -0.997933, 0.997933, 0, 229.104381, 264.901975)" fill="none" stroke-linejoin="miter" d="M 14.999392 15.000852 L 215.237601 15.000852 " stroke="#1a2e44" stroke-width="30" stroke-opacity="1" stroke-miterlimit="4"></path><g clip-path="url(#8a0eb39f4f)"><path stroke-linecap="round" transform="matrix(-0.681212, -0.72926, 0.72926, -0.681212, 236.564978, 272.97092)" fill="none" stroke-linejoin="miter" d="M 15.001355 15.000528 L 297.112698 14.997662 " stroke="#1a2e44" stroke-width="30" stroke-opacity="1" stroke-miterlimit="4"></path></g><g clip-path="url(#60579a2ab3)"><g clip-path="url(#b900c5d12b)"><g clip-path="url(#b2ad9fa1f1)"><path fill="#1a2e44" d="M 88.847656 43.28125 L 57.6875 58.019531 C 57.339844 58.183594 57.0625 58.460938 56.898438 58.808594 L 42.949219 89.074219 C 42.320312 90.433594 40.359375 90.304688 40.007812 88.882812 L 24.28125 26.546875 C 23.984375 25.382812 25.066406 24.300781 26.230469 24.597656 L 88.640625 40.328125 C 90.039062 40.679688 90.179688 42.628906 88.847656 43.28125 " fill-opacity="1" fill-rule="nonzero"></path></g></g></g></g></g></svg></svg></g></g></svg></g></svg>