<svg xmlns="http://www.w3.org/2000/svg" xmlns:xlink="http://www.w3.org/1999/xlink" width="500" zoomAndPan="magnify" viewBox="0 0 375 374.999991" height="500" preserveAspectRatio="xMidYMid meet" version="1.0"><defs><clipPath id="1505e2034f"><path d="M 37.5 37.5 L 337.5 37.5 L 337.5 337.5 L 37.5 337.5 Z M 37.5 37.5 " clip-rule="nonzero"/></clipPath><clipPath id="2456a2d6ae"><path d="M 75 37.5 L 300 37.5 C 309.945312 37.5 319.484375 41.449219 326.515625 48.484375 C 333.550781 55.515625 337.5 65.054688 337.5 75 L 337.5 300 C 337.5 309.945312 333.550781 319.484375 326.515625 326.515625 C 319.484375 333.550781 309.945312 337.5 300 337.5 L 75 337.5 C 65.054688 337.5 55.515625 333.550781 48.484375 326.515625 C 41.449219 319.484375 37.5 309.945312 37.5 300 L 37.5 75 C 37.5 65.054688 41.449219 55.515625 48.484375 48.484375 C 55.515625 41.449219 65.054688 37.5 75 37.5 Z M 75 37.5 " clip-rule="nonzero"/></clipPath><clipPath id="eef9190074"><path d="M 0.5 0.5 L 300.5 0.5 L 300.5 300.5 L 0.5 300.5 Z M 0.5 0.5 " clip-rule="nonzero"/></clipPath><clipPath id="95730f23b2"><path d="M 38 0.5 L 263 0.5 C 272.945312 0.5 282.484375 4.449219 289.515625 11.484375 C 296.550781 18.515625 300.5 28.054688 300.5 38 L 300.5 263 C 300.5 272.945312 296.550781 282.484375 289.515625 289.515625 C 282.484375 296.550781 272.945312 300.5 263 300.5 L 38 300.5 C 28.054688 300.5 18.515625 296.550781 11.484375 289.515625 C 4.449219 282.484375 0.5 272.945312 0.5 263 L 0.5 38 C 0.5 28.054688 4.449219 18.515625 11.484375 11.484375 C 18.515625 4.449219 28.054688 0.5 38 0.5 Z M 38 0.5 " clip-rule="nonzero"/></clipPath><clipPath id="df455142ca"><rect x="0" width="301" y="0" height="301"/></clipPath><clipPath id="8509c51b30"><path d="M 230 260 L 281 260 L 281 310 L 230 310 Z M 230 260 " clip-rule="nonzero"/></clipPath><clipPath id="e5a1a3f469"><path d="M 267.21875 259.730469 L 298.507812 291.019531 L 261.386719 328.144531 L 230.097656 296.855469 Z M 267.21875 259.730469 " clip-rule="nonzero"/></clipPath><clipPath id="149c703829"><path d="M 267.21875 259.730469 L 298.507812 291.019531 L 261.386719 328.144531 L 230.097656 296.855469 Z M 267.21875 259.730469 " clip-rule="nonzero"/></clipPath><clipPath id="4d6b73ae3f"><path d="M 94 65 L 145 65 L 145 115 L 94 115 Z M 94 65 " clip-rule="nonzero"/></clipPath><clipPath id="77aacf2bf1"><path d="M 107.78125 115.261719 L 76.492188 83.96875 L 113.613281 46.847656 L 144.902344 78.136719 Z M 107.78125 115.261719 " clip-rule="nonzero"/></clipPath><clipPath id="47e89e608e"><path d="M 107.78125 115.261719 L 76.492188 83.96875 L 113.613281 46.847656 L 144.902344 78.136719 Z M 107.78125 115.261719 " clip-rule="nonzero"/></clipPath></defs><g clip-path="url(#1505e2034f)"><g clip-path="url(#2456a2d6ae)"><g transform="matrix(1, 0, 0, 1, 37, 37)"><g clip-path="url(#df455142ca)"><g clip-path="url(#eef9190074)"><g clip-path="url(#95730f23b2)"><path fill="#1a2e44" d="M 0.5 0.5 L 300.5 0.5 L 300.5 300.5 L 0.5 300.5 Z M 0.5 0.5 " fill-opacity="1" fill-rule="nonzero"/></g></g></g></g></g></g><path stroke-linecap="round" transform="matrix(0, 0.75, -0.75, 0, 126.168351, 129.328235)" fill="none" stroke-linejoin="miter" d="M 14.999855 15.000511 L 215.234243 15.000511 " stroke="#f5f7fa" stroke-width="30" stroke-opacity="1" stroke-miterlimit="4"/><path stroke-linecap="round" transform="matrix(0.511967, 0.548078, -0.548078, 0.511967, 120.560058, 123.264002)" fill="none" stroke-linejoin="miter" d="M 15.000429 14.998337 L 297.111925 15.002313 " stroke="#f5f7fa" stroke-width="30" stroke-opacity="1" stroke-miterlimit="4"/><g clip-path="url(#8509c51b30)"><g clip-path="url(#e5a1a3f469)"><g clip-path="url(#149c703829)"><path fill="#f5f7fa" d="M 231.582031 295.878906 L 255 284.800781 C 255.257812 284.679688 255.46875 284.46875 255.589844 284.210938 L 266.074219 261.460938 C 266.546875 260.441406 268.019531 260.535156 268.285156 261.605469 L 280.105469 308.457031 C 280.328125 309.332031 279.515625 310.144531 278.640625 309.917969 L 231.734375 298.097656 C 230.683594 297.835938 230.578125 296.371094 231.582031 295.878906 " fill-opacity="1" fill-rule="nonzero"/></g></g></g><path stroke-linecap="round" transform="matrix(0, -0.75, 0.75, 0, 248.830066, 245.671741)" fill="none" stroke-linejoin="miter" d="M 14.999822 14.997413 L 215.23421 14.997413 " stroke="#f5f7fa" stroke-width="30" stroke-opacity="1" stroke-miterlimit="4"/><path stroke-linecap="round" transform="matrix(-0.511967, -0.548078, 0.548078, -0.511967, 254.437137, 251.735959)" fill="none" stroke-linejoin="miter" d="M 14.997838 15.001034 L 297.11289 15.001203 " stroke="#f5f7fa" stroke-width="30" stroke-opacity="1" stroke-miterlimit="4"/><g clip-path="url(#4d6b73ae3f)"><g clip-path="url(#77aacf2bf1)"><g clip-path="url(#47e89e608e)"><path fill="#f5f7fa" d="M 143.417969 79.113281 L 120 90.1875 C 119.742188 90.3125 119.53125 90.523438 119.40625 90.78125 L 108.925781 113.527344 C 108.453125 114.550781 106.980469 114.453125 106.714844 113.386719 L 94.894531 66.535156 C 94.671875 65.660156 95.484375 64.847656 96.359375 65.070312 L 143.265625 76.890625 C 144.316406 77.15625 144.421875 78.621094 143.417969 79.113281 " fill-opacity="1" fill-rule="nonzero"/></g></g></g></svg>